<?xml version="1.0" standalone="no"?>
<!DOCTYPE svg PUBLIC "-//W3C//DTD SVG 20010904//EN"
 "http://www.w3.org/TR/2001/REC-SVG-20010904/DTD/svg10.dtd">
<svg version="1.0" xmlns="http://www.w3.org/2000/svg"
 width="700.000000pt" height="700.000000pt" viewBox="0 0 700.000000 700.000000"
 preserveAspectRatio="xMidYMid meet">
<metadata>
Created by potrace 1.11, written by Peter Selinger 2001-2013
</metadata>
<g transform="translate(0.000000,700.000000) scale(0.100000,-0.100000)"
fill="#000000" stroke="none">
<path d="M3730 5825 c-95 -19 -173 -86 -206 -177 -16 -42 -22 -163 -24 -434
l0 -100 -807 -807 -807 -807 -90 -1 c-774 -4 -1113 -8 -1148 -14 -84 -14 -158
-69 -201 -150 -30 -56 -31 -193 -1 -248 11 -22 586 -605 1310 -1329 1011
-1012 1299 -1295 1336 -1313 160 -75 356 21 393 195 6 29 11 367 14 1086 l1
162 807 806 807 806 130 1 c356 1 393 6 472 60 77 52 115 129 115 232 0 119
39 75 -957 1070 -500 500 -927 919 -949 932 -56 33 -128 44 -195 30z"/>
<path d="M762 1218 c-410 -412 -402 -403 -402 -440 0 -41 12 -60 88 -140 276
-291 294 -305 353 -277 15 8 189 172 385 364 196 193 361 353 368 357 7 5 -76
94 -219 238 -126 126 -232 230 -236 230 -3 0 -155 -150 -337 -332z"/>
</g>
</svg>
